<?xml version="1.0" standalone="no"?><!DOCTYPE svg PUBLIC "-//W3C//DTD SVG 1.1//EN" "http://www.w3.org/Graphics/SVG/1.1/DTD/svg11.dtd"><svg class="icon" width="200px" height="200.00px" viewBox="0 0 1024 1024" version="1.1" xmlns="http://www.w3.org/2000/svg"><path d="M963.047619 269.165714C906.971429 165.790476 816.761905 83.870476 707.047619 38.521905v485.668571l255.024762-255.024762h0.975238z" fill="#662d91" /><path d="M1024 512c0-69.729524-14.140952-136.045714-39.009524-196.510476L641.706667 658.285714h360.350476v2.438096c14.140952-47.299048 21.942857-97.03619 21.942857-148.72381z" fill="#0071bc" /><path d="M658.285714 23.405714h7.801905C617.325714 8.289524 565.638095 0 512 0 442.270476 0 375.466667 14.140952 315.001905 39.497143L658.285714 382.780952V23.405714z" fill="#ff0000" /><path d="M21.455238 365.714286C7.314286 412.038095 0 461.287619 0 512c0 69.729524 14.140952 136.533333 39.497143 196.998095L382.293333 365.714286h-360.838095z" fill="#fbb03b" /><path d="M365.714286 1002.057143h-2.438096c46.811429 14.140952 97.03619 21.942857 148.72381 21.942857 69.729524 0 136.045714-14.140952 196.998095-39.009524L365.714286 641.706667v360.350476z" fill="#d9e021" /><path d="M755.321905 962.072381l-0.487619 0.487619c103.375238-55.588571 185.295238-146.285714 230.643809-255.512381h-485.180952l255.024762 255.024762z" fill="#29abe2" /><path d="M316.952381 985.478095v-485.180952L61.44 755.809524c56.07619 102.887619 146.285714 184.807619 255.512381 229.668571z" fill="#8cc63f" /><path d="M268.678095 61.927619l0.975238-0.975238C165.790476 116.540952 83.870476 207.238095 38.521905 316.952381h485.180952L268.678095 61.927619z" fill="#f15a24" /></svg>